<svg xmlns="http://www.w3.org/2000/svg" xmlns:xlink="http://www.w3.org/1999/xlink" width="1331" zoomAndPan="magnify" viewBox="0 0 998.25 299.999988" height="400" preserveAspectRatio="xMidYMid meet" version="1.0"><defs><g/></defs><path fill="#ffffff" d="M 177.804688 104.574219 C 174.09375 103.660156 170.332031 103.078125 166.515625 102.832031 C 162.703125 102.585938 158.898438 102.679688 155.101562 103.113281 C 151.304688 103.546875 147.574219 104.3125 143.914062 105.410156 C 140.253906 106.507812 136.71875 107.921875 133.308594 109.652344 C 132.085938 105.035156 130.46875 100.566406 128.457031 96.234375 C 126.445312 91.90625 124.066406 87.789062 121.328125 83.878906 C 118.585938 79.96875 115.527344 76.328125 112.144531 72.960938 C 108.761719 69.589844 105.109375 66.546875 101.1875 63.820312 C 100.523438 63.378906 99.8125 63.039062 99.046875 62.808594 C 98.285156 62.578125 97.503906 62.460938 96.707031 62.460938 C 95.910156 62.460938 95.128906 62.578125 94.367188 62.808594 C 93.601562 63.039062 92.890625 63.378906 92.226562 63.820312 C 88.304688 66.546875 84.652344 69.59375 81.269531 72.964844 C 77.886719 76.335938 74.824219 79.976562 72.082031 83.886719 C 69.34375 87.796875 66.964844 91.917969 64.953125 96.25 C 62.9375 100.578125 61.320312 105.050781 60.09375 109.667969 C 56.6875 107.9375 53.152344 106.519531 49.492188 105.417969 C 45.832031 104.316406 42.105469 103.550781 38.308594 103.113281 C 34.507812 102.679688 30.703125 102.585938 26.890625 102.832031 C 23.074219 103.074219 19.3125 103.65625 15.601562 104.574219 C 14.867188 104.761719 14.175781 105.046875 13.523438 105.429688 C 12.871094 105.8125 12.285156 106.277344 11.761719 106.824219 C 11.242188 107.375 10.804688 107.984375 10.453125 108.652344 C 10.105469 109.324219 9.855469 110.03125 9.703125 110.773438 C 9.078125 114.011719 8.636719 117.277344 8.382812 120.566406 C 8.128906 123.855469 8.0625 127.148438 8.1875 130.445312 C 8.308594 133.742188 8.617188 137.023438 9.113281 140.285156 C 9.609375 143.546875 10.289062 146.769531 11.152344 149.957031 C 12.015625 153.140625 13.058594 156.265625 14.277344 159.332031 C 15.496094 162.394531 16.886719 165.382812 18.449219 168.289062 C 20.007812 171.195312 21.730469 174.007812 23.609375 176.71875 C 25.492188 179.429688 27.519531 182.023438 29.695312 184.503906 C 48.644531 205.753906 71.507812 207.519531 95.222656 207.519531 L 98.09375 207.519531 C 121.84375 207.519531 144.722656 205.753906 163.691406 184.511719 C 165.871094 182.03125 167.90625 179.4375 169.789062 176.726562 C 171.675781 174.019531 173.398438 171.210938 174.960938 168.300781 C 176.527344 165.394531 177.921875 162.410156 179.144531 159.34375 C 180.367188 156.277344 181.410156 153.148438 182.277344 149.964844 C 183.140625 146.777344 183.824219 143.554688 184.324219 140.292969 C 184.820312 137.027344 185.132812 133.746094 185.253906 130.449219 C 185.378906 127.148438 185.3125 123.855469 185.058594 120.5625 C 184.808594 117.273438 184.367188 114.003906 183.742188 110.765625 C 183.589844 110.019531 183.335938 109.3125 182.984375 108.640625 C 182.628906 107.96875 182.191406 107.359375 181.664062 106.8125 C 181.140625 106.265625 180.546875 105.800781 179.890625 105.421875 C 179.234375 105.042969 178.539062 104.757812 177.804688 104.574219 Z M 96.707031 80.550781 C 99.566406 82.992188 102.203125 85.65625 104.617188 88.539062 C 107.03125 91.421875 109.1875 94.484375 111.089844 97.726562 C 112.992188 100.972656 114.609375 104.351562 115.945312 107.867188 C 117.28125 111.378906 118.3125 114.980469 119.046875 118.671875 C 115.898438 121.164062 112.972656 123.898438 110.269531 126.867188 C 104.738281 132.96875 100.21875 139.746094 96.707031 147.199219 C 93.179688 139.75 88.648438 132.972656 83.109375 126.867188 C 80.410156 123.914062 77.492188 121.195312 74.359375 118.710938 C 75.089844 115.019531 76.125 111.414062 77.457031 107.894531 C 78.792969 104.375 80.410156 100.992188 82.3125 97.746094 C 84.214844 94.5 86.375 91.429688 88.789062 88.546875 C 91.207031 85.660156 93.84375 82.996094 96.707031 80.550781 Z M 88.308594 191.335938 C 70 190.933594 54.679688 188.308594 41.730469 173.777344 C 40.109375 171.929688 38.589844 170.003906 37.171875 168 C 35.753906 165.996094 34.445312 163.921875 33.242188 161.78125 C 32.039062 159.640625 30.953125 157.441406 29.980469 155.1875 C 29.007812 152.933594 28.152344 150.632812 27.421875 148.289062 C 26.6875 145.945312 26.078125 143.570312 25.59375 141.164062 C 25.109375 138.757812 24.75 136.332031 24.519531 133.886719 C 24.285156 131.441406 24.183594 128.992188 24.207031 126.535156 C 24.230469 124.082031 24.382812 121.632812 24.660156 119.195312 C 26.824219 118.972656 28.996094 118.882812 31.171875 118.925781 C 33.347656 118.96875 35.511719 119.144531 37.667969 119.449219 C 39.820312 119.757812 41.949219 120.195312 44.050781 120.765625 C 46.152344 121.332031 48.210938 122.023438 50.226562 122.84375 C 52.242188 123.664062 54.203125 124.601562 56.105469 125.660156 C 58.003906 126.71875 59.835938 127.890625 61.59375 129.171875 C 63.351562 130.453125 65.027344 131.839844 66.617188 133.324219 C 68.207031 134.8125 69.699219 136.390625 71.09375 138.058594 C 72.679688 139.863281 74.164062 141.746094 75.554688 143.703125 C 76.949219 145.660156 78.234375 147.679688 79.421875 149.769531 C 80.605469 151.855469 81.679688 154 82.648438 156.199219 C 83.613281 158.394531 84.464844 160.636719 85.203125 162.921875 C 85.941406 165.203125 86.5625 167.519531 87.066406 169.867188 C 87.566406 172.214844 87.949219 174.582031 88.207031 176.96875 C 88.46875 179.355469 88.609375 181.75 88.625 184.152344 C 88.640625 186.550781 88.535156 188.945312 88.308594 191.335938 Z M 151.660156 173.777344 C 138.683594 188.28125 123.347656 190.933594 105.007812 191.335938 C 104.78125 188.945312 104.675781 186.550781 104.691406 184.152344 C 104.707031 181.75 104.847656 179.355469 105.109375 176.96875 C 105.367188 174.582031 105.75 172.214844 106.253906 169.867188 C 106.753906 167.519531 107.375 165.207031 108.113281 162.921875 C 108.855469 160.636719 109.707031 158.394531 110.675781 156.199219 C 111.640625 154 112.71875 151.859375 113.90625 149.773438 C 115.089844 147.683594 116.378906 145.664062 117.773438 143.707031 C 119.164062 141.75 120.652344 139.871094 122.238281 138.066406 C 124.734375 135.132812 127.515625 132.488281 130.570312 130.136719 C 133.625 127.789062 136.894531 125.78125 140.375 124.121094 C 143.851562 122.460938 147.464844 121.179688 151.214844 120.277344 C 154.964844 119.378906 158.765625 118.878906 162.621094 118.78125 C 164.675781 118.78125 166.71875 118.921875 168.753906 119.203125 C 169.03125 121.640625 169.183594 124.089844 169.207031 126.542969 C 169.230469 129 169.125 131.449219 168.890625 133.894531 C 168.660156 136.339844 168.300781 138.765625 167.8125 141.171875 C 167.328125 143.578125 166.71875 145.957031 165.984375 148.296875 C 165.25 150.640625 164.394531 152.941406 163.421875 155.195312 C 162.449219 157.449219 161.359375 159.648438 160.15625 161.789062 C 158.953125 163.929688 157.640625 166 156.222656 168.003906 C 154.800781 170.007812 153.28125 171.933594 151.660156 173.777344 Z M 151.660156 173.777344 " fill-opacity="1" fill-rule="nonzero"/><g fill="#ffffff" fill-opacity="1"><g transform="translate(228.334997, 191.295707)"><g><path d="M 10.828125 -111.5625 C 10.828125 -112.664062 11.378906 -113.21875 12.484375 -113.21875 L 33.640625 -113.21875 C 34.742188 -113.21875 35.296875 -112.664062 35.296875 -111.5625 L 35.296875 -22.8125 C 35.296875 -22.144531 35.628906 -21.8125 36.296875 -21.8125 L 86.25 -21.8125 C 87.351562 -21.8125 87.90625 -21.253906 87.90625 -20.140625 L 87.90625 -1.671875 C 87.90625 -0.554688 87.351562 0 86.25 0 L 12.484375 0 C 11.378906 0 10.828125 -0.554688 10.828125 -1.671875 Z M 10.828125 -111.5625 "/></g></g></g><g fill="#ffffff" fill-opacity="1"><g transform="translate(319.905664, 191.295707)"><g><path d="M 40.796875 -15.65625 C 50.785156 -15.65625 55.78125 -19.375 55.78125 -26.8125 L 55.78125 -32.296875 C 55.78125 -32.960938 55.445312 -33.296875 54.78125 -33.296875 L 43.453125 -33.296875 C 33.910156 -33.296875 29.140625 -30.242188 29.140625 -24.140625 C 29.140625 -18.484375 33.023438 -15.65625 40.796875 -15.65625 Z M 57.78125 0 C 56.664062 0 56.109375 -0.554688 56.109375 -1.671875 L 56.109375 -7 L 55.9375 -7 C 53.832031 -4.332031 51.003906 -2.191406 47.453125 -0.578125 C 43.898438 1.023438 39.347656 1.828125 33.796875 1.828125 C 30.242188 1.828125 26.828125 1.351562 23.546875 0.40625 C 20.273438 -0.53125 17.421875 -2 14.984375 -4 C 12.546875 -6 10.601562 -8.550781 9.15625 -11.65625 C 7.71875 -14.757812 7 -18.476562 7 -22.8125 C 7 -31.6875 10.078125 -38.234375 16.234375 -42.453125 C 22.390625 -46.671875 30.460938 -48.78125 40.453125 -48.78125 L 54.78125 -48.78125 C 55.445312 -48.78125 55.78125 -49.113281 55.78125 -49.78125 L 55.78125 -52.78125 C 55.78125 -56.550781 54.640625 -59.320312 52.359375 -61.09375 C 50.085938 -62.875 45.734375 -63.765625 39.296875 -63.765625 C 35.191406 -63.765625 31.640625 -63.265625 28.640625 -62.265625 C 25.640625 -61.265625 23.195312 -60.046875 21.3125 -58.609375 C 20.425781 -57.941406 19.703125 -58.050781 19.140625 -58.9375 L 11.65625 -72.09375 C 11.101562 -73.09375 11.269531 -73.867188 12.15625 -74.421875 C 15.59375 -76.867188 19.78125 -78.8125 24.71875 -80.25 C 29.664062 -81.695312 35.46875 -82.421875 42.125 -82.421875 C 48.675781 -82.421875 54.222656 -81.835938 58.765625 -80.671875 C 63.316406 -79.503906 67.007812 -77.726562 69.84375 -75.34375 C 72.675781 -72.957031 74.726562 -69.929688 76 -66.265625 C 77.28125 -62.597656 77.921875 -58.269531 77.921875 -53.28125 L 77.921875 -1.671875 C 77.921875 -0.554688 77.363281 0 76.25 0 Z M 57.78125 0 "/></g></g></g><g fill="#ffffff" fill-opacity="1"><g transform="translate(407.813506, 191.295707)"><g><path d="M 60.609375 0 C 59.492188 0 58.9375 -0.554688 58.9375 -1.671875 L 58.9375 -47.953125 C 58.9375 -52.390625 57.910156 -55.941406 55.859375 -58.609375 C 53.804688 -61.273438 50.671875 -62.609375 46.453125 -62.609375 C 42.453125 -62.609375 39.34375 -61.273438 37.125 -58.609375 C 34.90625 -55.941406 33.796875 -52.390625 33.796875 -47.953125 L 33.796875 -1.671875 C 33.796875 -0.554688 33.242188 0 32.140625 0 L 12.15625 0 C 11.039062 0 10.484375 -0.554688 10.484375 -1.671875 L 10.484375 -78.921875 C 10.484375 -80.035156 11.039062 -80.59375 12.15625 -80.59375 L 32.140625 -80.59375 C 33.242188 -80.59375 33.796875 -80.035156 33.796875 -78.921875 L 33.796875 -73.265625 L 33.96875 -73.265625 C 35.851562 -75.816406 38.488281 -77.976562 41.875 -79.75 C 45.257812 -81.53125 49.5625 -82.421875 54.78125 -82.421875 C 59.21875 -82.421875 63.15625 -81.695312 66.59375 -80.25 C 70.039062 -78.8125 72.925781 -76.757812 75.25 -74.09375 C 77.582031 -71.425781 79.332031 -68.257812 80.5 -64.59375 C 81.664062 -60.9375 82.25 -56.890625 82.25 -52.453125 L 82.25 -1.671875 C 82.25 -0.554688 81.695312 0 80.59375 0 Z M 60.609375 0 "/></g></g></g><g fill="#ffffff" fill-opacity="1"><g transform="translate(499.883652, 191.295707)"><g><path d="M 37.796875 1 C 28.472656 1 21.867188 -1.160156 17.984375 -5.484375 C 14.097656 -9.816406 12.15625 -16.59375 12.15625 -25.8125 L 12.15625 -62.4375 C 12.15625 -63.101562 11.820312 -63.4375 11.15625 -63.4375 L 6.15625 -63.4375 C 5.050781 -63.4375 4.5 -63.988281 4.5 -65.09375 L 4.5 -78.921875 C 4.5 -80.035156 5.050781 -80.59375 6.15625 -80.59375 L 11.15625 -80.59375 C 11.820312 -80.59375 12.15625 -80.921875 12.15625 -81.578125 L 12.15625 -103.234375 C 12.15625 -104.335938 12.707031 -104.890625 13.8125 -104.890625 L 33.640625 -104.890625 C 34.742188 -104.890625 35.296875 -104.335938 35.296875 -103.234375 L 35.296875 -81.578125 C 35.296875 -80.921875 35.628906 -80.59375 36.296875 -80.59375 L 46.625 -80.59375 C 47.726562 -80.59375 48.28125 -80.035156 48.28125 -78.921875 L 48.28125 -65.09375 C 48.28125 -63.988281 47.726562 -63.4375 46.625 -63.4375 L 36.296875 -63.4375 C 35.628906 -63.4375 35.296875 -63.101562 35.296875 -62.4375 L 35.296875 -26.8125 C 35.296875 -23.8125 35.847656 -21.726562 36.953125 -20.5625 C 38.066406 -19.394531 39.957031 -18.8125 42.625 -18.8125 L 46.625 -18.8125 C 47.726562 -18.8125 48.28125 -18.257812 48.28125 -17.15625 L 48.28125 -0.671875 C 48.28125 0.441406 47.726562 1 46.625 1 Z M 37.796875 1 "/></g></g></g><g fill="#ffffff" fill-opacity="1"><g transform="translate(554.99256, 191.295707)"><g><path d="M 57.28125 -48.78125 C 57.945312 -48.78125 58.28125 -49.113281 58.28125 -49.78125 C 58.28125 -51 58.195312 -52.082031 58.03125 -53.03125 C 57.863281 -53.976562 57.664062 -54.894531 57.4375 -55.78125 C 56.550781 -58.550781 54.914062 -60.710938 52.53125 -62.265625 C 50.144531 -63.828125 47.285156 -64.609375 43.953125 -64.609375 C 40.628906 -64.609375 37.769531 -63.828125 35.375 -62.265625 C 32.988281 -60.710938 31.351562 -58.550781 30.46875 -55.78125 C 30.25 -54.894531 30.054688 -53.976562 29.890625 -53.03125 C 29.722656 -52.082031 29.640625 -51 29.640625 -49.78125 C 29.640625 -49.113281 29.972656 -48.78125 30.640625 -48.78125 Z M 44.953125 1.828125 C 35.742188 1.828125 28.085938 -0.164062 21.984375 -4.15625 C 15.878906 -8.15625 11.660156 -13.816406 9.328125 -21.140625 C 8.429688 -23.691406 7.734375 -26.46875 7.234375 -29.46875 C 6.742188 -32.46875 6.5 -36.078125 6.5 -40.296875 C 6.5 -44.515625 6.71875 -48.148438 7.15625 -51.203125 C 7.601562 -54.253906 8.269531 -57.054688 9.15625 -59.609375 C 11.488281 -66.929688 15.675781 -72.5625 21.71875 -76.5 C 27.769531 -80.445312 35.128906 -82.421875 43.796875 -82.421875 C 52.785156 -82.421875 60.25 -80.421875 66.1875 -76.421875 C 72.125 -72.421875 76.257812 -66.875 78.59375 -59.78125 C 79.03125 -58.445312 79.414062 -57.03125 79.75 -55.53125 C 80.082031 -54.03125 80.359375 -52.335938 80.578125 -50.453125 C 80.804688 -48.566406 80.972656 -46.375 81.078125 -43.875 C 81.191406 -41.375 81.25 -38.40625 81.25 -34.96875 C 81.25 -33.851562 80.640625 -33.296875 79.421875 -33.296875 L 30.640625 -33.296875 C 29.972656 -33.296875 29.640625 -32.960938 29.640625 -32.296875 C 29.742188 -30.628906 30.078125 -29.132812 30.640625 -27.8125 C 31.742188 -24.257812 33.738281 -21.59375 36.625 -19.8125 C 39.507812 -18.039062 43.0625 -17.15625 47.28125 -17.15625 C 51.28125 -17.15625 54.773438 -17.789062 57.765625 -19.0625 C 60.765625 -20.34375 63.429688 -22.09375 65.765625 -24.3125 C 66.765625 -25.082031 67.539062 -25.082031 68.09375 -24.3125 L 79.09375 -13.984375 C 79.976562 -13.210938 80.03125 -12.4375 79.25 -11.65625 C 75.363281 -7.550781 70.535156 -4.273438 64.765625 -1.828125 C 58.992188 0.605469 52.390625 1.828125 44.953125 1.828125 Z M 44.953125 1.828125 "/></g></g></g><g fill="#ffffff" fill-opacity="1"><g transform="translate(642.733901, 191.295707)"><g><path d="M 12.15625 0 C 11.039062 0 10.484375 -0.554688 10.484375 -1.671875 L 10.484375 -78.921875 C 10.484375 -80.035156 11.039062 -80.59375 12.15625 -80.59375 L 32.140625 -80.59375 C 33.242188 -80.59375 33.796875 -80.035156 33.796875 -78.921875 L 33.796875 -72.09375 L 33.96875 -72.09375 C 35.851562 -75.3125 38.570312 -77.835938 42.125 -79.671875 C 45.675781 -81.503906 49.945312 -82.421875 54.9375 -82.421875 C 57.601562 -82.421875 60.1875 -82.003906 62.6875 -81.171875 C 65.1875 -80.335938 67.320312 -79.144531 69.09375 -77.59375 C 69.875 -76.925781 70.039062 -76.148438 69.59375 -75.265625 L 60.265625 -58.28125 C 59.710938 -57.613281 58.9375 -57.5 57.9375 -57.9375 C 53.945312 -60.488281 50.0625 -61.710938 46.28125 -61.609375 C 41.957031 -61.378906 38.796875 -59.765625 36.796875 -56.765625 C 34.796875 -53.773438 33.796875 -49.5625 33.796875 -44.125 L 33.796875 -1.671875 C 33.796875 -0.554688 33.242188 0 32.140625 0 Z M 12.15625 0 "/></g></g></g><g fill="#ffffff" fill-opacity="1"><g transform="translate(713.659523, 191.295707)"><g><path d="M 60.609375 0 C 59.492188 0 58.9375 -0.554688 58.9375 -1.671875 L 58.9375 -47.953125 C 58.9375 -52.390625 57.910156 -55.941406 55.859375 -58.609375 C 53.804688 -61.273438 50.671875 -62.609375 46.453125 -62.609375 C 42.453125 -62.609375 39.34375 -61.273438 37.125 -58.609375 C 34.90625 -55.941406 33.796875 -52.390625 33.796875 -47.953125 L 33.796875 -1.671875 C 33.796875 -0.554688 33.242188 0 32.140625 0 L 12.15625 0 C 11.039062 0 10.484375 -0.554688 10.484375 -1.671875 L 10.484375 -78.921875 C 10.484375 -80.035156 11.039062 -80.59375 12.15625 -80.59375 L 32.140625 -80.59375 C 33.242188 -80.59375 33.796875 -80.035156 33.796875 -78.921875 L 33.796875 -73.265625 L 33.96875 -73.265625 C 35.851562 -75.816406 38.488281 -77.976562 41.875 -79.75 C 45.257812 -81.53125 49.5625 -82.421875 54.78125 -82.421875 C 59.21875 -82.421875 63.15625 -81.695312 66.59375 -80.25 C 70.039062 -78.8125 72.925781 -76.757812 75.25 -74.09375 C 77.582031 -71.425781 79.332031 -68.257812 80.5 -64.59375 C 81.664062 -60.9375 82.25 -56.890625 82.25 -52.453125 L 82.25 -1.671875 C 82.25 -0.554688 81.695312 0 80.59375 0 Z M 60.609375 0 "/></g></g></g><g fill="#ffffff" fill-opacity="1"><g transform="translate(805.729704, 191.295707)"><g><path d="M 10.828125 -111.5625 C 10.828125 -112.664062 11.378906 -113.21875 12.484375 -113.21875 L 33.640625 -113.21875 C 34.742188 -113.21875 35.296875 -112.664062 35.296875 -111.5625 L 35.296875 -1.671875 C 35.296875 -0.554688 34.742188 0 33.640625 0 L 12.484375 0 C 11.378906 0 10.828125 -0.554688 10.828125 -1.671875 Z M 10.828125 -111.5625 "/></g></g></g><g fill="#ffffff" fill-opacity="1"><g transform="translate(851.848022, 191.295707)"><g><path d="M 10.984375 -25.96875 C 10.316406 -27.75 9.789062 -29.550781 9.40625 -31.375 C 9.019531 -33.207031 8.710938 -35.257812 8.484375 -37.53125 C 8.265625 -39.8125 8.097656 -42.476562 7.984375 -45.53125 C 7.878906 -48.582031 7.828125 -52.273438 7.828125 -56.609375 C 7.828125 -60.941406 7.878906 -64.632812 7.984375 -67.6875 C 8.097656 -70.738281 8.265625 -73.398438 8.484375 -75.671875 C 8.710938 -77.953125 9.019531 -79.976562 9.40625 -81.75 C 9.789062 -83.53125 10.316406 -85.363281 10.984375 -87.25 C 13.984375 -96.570312 18.953125 -103.535156 25.890625 -108.140625 C 32.828125 -112.742188 41.289062 -115.046875 51.28125 -115.046875 C 60.9375 -115.046875 69.117188 -112.851562 75.828125 -108.46875 C 82.546875 -104.082031 87.519531 -97.894531 90.75 -89.90625 C 91.300781 -88.90625 91.019531 -88.238281 89.90625 -87.90625 L 71.765625 -79.75 C 70.765625 -79.195312 69.988281 -79.476562 69.4375 -80.59375 C 67.875 -84.25 65.675781 -87.296875 62.84375 -89.734375 C 60.019531 -92.179688 56.222656 -93.40625 51.453125 -93.40625 C 47.003906 -93.40625 43.363281 -92.296875 40.53125 -90.078125 C 37.707031 -87.859375 35.6875 -84.804688 34.46875 -80.921875 C 34.132812 -79.921875 33.851562 -78.835938 33.625 -77.671875 C 33.40625 -76.503906 33.210938 -75.03125 33.046875 -73.25 C 32.878906 -71.476562 32.769531 -69.257812 32.71875 -66.59375 C 32.664062 -63.9375 32.640625 -60.609375 32.640625 -56.609375 C 32.640625 -52.609375 32.664062 -49.273438 32.71875 -46.609375 C 32.769531 -43.953125 32.878906 -41.734375 33.046875 -39.953125 C 33.210938 -38.179688 33.40625 -36.710938 33.625 -35.546875 C 33.851562 -34.378906 34.132812 -33.296875 34.46875 -32.296875 C 35.6875 -28.410156 37.707031 -25.359375 40.53125 -23.140625 C 43.363281 -20.921875 47.003906 -19.8125 51.453125 -19.8125 C 56.222656 -19.8125 60.019531 -21.03125 62.84375 -23.46875 C 65.675781 -25.914062 67.875 -28.972656 69.4375 -32.640625 C 69.988281 -33.742188 70.765625 -34.019531 71.765625 -33.46875 L 89.90625 -25.3125 C 91.019531 -24.976562 91.300781 -24.3125 90.75 -23.3125 C 87.519531 -15.320312 82.546875 -9.132812 75.828125 -4.75 C 69.117188 -0.363281 60.9375 1.828125 51.28125 1.828125 C 41.289062 1.828125 32.828125 -0.472656 25.890625 -5.078125 C 18.953125 -9.679688 13.984375 -16.644531 10.984375 -25.96875 Z M 10.984375 -25.96875 "/></g></g></g></svg>